HIERARCHY
ROOT pelvis
{
  OFFSET 0 100 0
  CHANNELS 6 Xposition Yposition Zposition Zrotation Xrotation Yrotation
  JOINT pelvis_right_femur
  {
    OFFSET -10.78128 -3.44521 -0.5502486
    CHANNELS 3 Zrotation Xrotation Yrotation
    JOINT right_femur_tibia
    {
      OFFSET -0.8047443 -44.0398 -0.1307829
      CHANNELS 3 Zrotation Xrotation Yrotation
      JOINT right_tibia_foot
      {
        OFFSET 3.006224 -47.83518 -5
        CHANNELS 3 Zrotation Xrotation Yrotation
        End Site
        {
          OFFSET 0 -5 15
        }
      }
    }
  }
  JOINT pelvis_left_femur
  {
    OFFSET 10.78128 -3.44521 -0.5502486
    CHANNELS 3 Zrotation Xrotation Yrotation
    JOINT left_femur_tibia
    {
      OFFSET 0.8047443 -44.0398 -0.1307829
      CHANNELS 3 Zrotation Xrotation Yrotation
      JOINT left_tibia_foot
      {
        OFFSET -4.370144 -48.10324 -4.275266
        CHANNELS 3 Zrotation Xrotation Yrotation
        End Site
        {
          OFFSET 0 -5 15
        }
      }
    }
  }
  JOINT pelvis_spine1
  {
    OFFSET 0 6.468898 -3.129235
    CHANNELS 3 Zrotation Xrotation Yrotation
    JOINT spine1
    {
      OFFSET 0 23.15396 4.99043
      CHANNELS 3 Zrotation Xrotation Yrotation
      JOINT spine2
      {
        OFFSET 0 20.79997 -5.064912
        CHANNELS 3 Zrotation Xrotation Yrotation
        JOINT neck
        {
          OFFSET 0 14.38658 9.616178
          CHANNELS 3 Zrotation Xrotation Yrotation
          End Site
          {
            OFFSET 0 20 0
          }
        }
      }
      JOINT right_manubrium
      {
        OFFSET -5.722621 16.35077 3.967754
        CHANNELS 3 Zrotation Xrotation Yrotation
        JOINT right_clavicle
        {
          OFFSET -13.16364 1.694482 -4.693211
          CHANNELS 3 Zrotation Xrotation Yrotation
          JOINT right_humerus
          {
            OFFSET -28.5034 -0.3100689 -2.792744
            CHANNELS 3 Zrotation Xrotation Yrotation
            JOINT right_radius
            {
              OFFSET -25.15693 0.02248979 -1.271978
              CHANNELS 3 Zrotation Xrotation Yrotation
              End Site
              {
                OFFSET -15 0 0
              }
            }
          }
        }
      }
      JOINT left_manubrium
      {
        OFFSET 5.722621 16.35077 3.967754
        CHANNELS 3 Zrotation Xrotation Yrotation
        JOINT left_clavicle
        {
          OFFSET 13.16364 1.694482 -4.693211
          CHANNELS 3 Zrotation Xrotation Yrotation
          JOINT left_humerus
          {
            OFFSET 29.39168 -1.063119 -2.237045
            CHANNELS 3 Zrotation Xrotation Yrotation
            JOINT left_radius
            {
              OFFSET 24.59957 -0.9528479 0.9047498
              CHANNELS 3 Zrotation Xrotation Yrotation
              End Site
              {
                OFFSET 15 -0 -0
              }
            }
          }
        }
      }
    }
  }
}
MOTION
Frames: 7
Frame Time: 0.0416666666667
0 103.5113 0 2.511481 0.9479418 0.1214003 2.765049 -14.59266 10.57665 -0 38.30408 -0 -4.93505 -18.51534 -2.85605 -9.167494 8.600656 -22.21081 -0 4.324124 -0 21.8318 -9.677813 30.28113 -2.161962 -3.000794 5.502408 2.4116 10.1299 -7.798416 1.354725 20.44801 6.850205 3.814185 -25.21973 8.997711 5.587521 -19.43129 10.95474 85.9058 35.09364 -19.60562 -0 0 15.78754 -8.715456 9.461068 3.953036 7.757979 -22.06294 -0.471577 -93.05332 22.01271 20.95198 0 0 -16.03533 13.03356 14.86976 -0.7466954
0.2082532 105.0105 1.588529 2.02425 1.564948 0.2380662 3.892051 -16.76134 11.20729 -0 38.81081 -0 -5.314473 -17.52683 -2.851414 -8.968268 8.286026 -21.76928 -0 4.983015 -0 23.1351 -9.705078 30.75666 -1.780735 -2.60207 5.144215 2.634097 9.946597 -8.121954 1.462599 20.05291 7.002472 3.90609 -26.12339 9.295683 5.391341 -18.97516 11.05447 86.82512 34.98675 -20.50749 -0 0 14.87627 -8.435856 9.643526 3.631824 7.910019 -22.10246 -0.2982532 -92.52445 21.52623 20.00598 0 0 -16.90783 13.49169 14.76016 -1.662699
0.4576215 106.1844 3.571149 1.167346 0.6493033 0.3986612 4.45481 -20.47963 7.611884 -0 33.60544 -0 -6.567069 -13.79698 -1.967532 -7.748435 10.73779 -21.25599 -0 6.028042 -0 15.81493 -15.37582 27.62511 -1.912474 -2.525675 5.11245 2.613736 9.899408 -7.998141 1.353995 20.14399 7.040347 3.961441 -25.78063 9.065093 5.494057 -18.87014 11.07309 86.28319 34.99447 -19.92325 -0 0 14.87858 -8.904792 9.738101 4.20751 7.799034 -22.04742 -0.4271737 -92.28952 21.62339 19.74494 0 0 -17.04573 12.91028 14.44491 -1.0219
0.720067 107.2687 5.850532 0.5337418 0.7515889 0.5214377 5.131732 -23.60202 6.415172 -0 30.78518 -0 -7.190497 -11.38935 -1.659169 -7.083069 11.66429 -20.55691 -0 6.784123 -0 12.75566 -17.95695 25.8991 -1.869738 -2.349603 4.920298 2.725566 9.77459 -8.056543 1.337938 20.0859 7.097028 3.977141 -25.95036 9.066498 5.508668 -18.6228 11.12635 86.30718 34.92141 -19.96438 -0 0 14.49564 -9.009057 9.848294 4.453874 7.708993 -21.95274 -0.4588037 -92.0319 21.69476 19.33538 0 0 -17.37881 12.54187 14.29722 -0.7156673
0.978604 108.2397 8.537496 -0.0550601 1.128634 0.6753261 5.771423 -26.99288 5.150162 -0 27.40205 -0 -7.960409 -8.671398 -1.154249 -6.52783 12.41794 -19.45241 -0 7.861553 -0 10.58733 -19.88601 24.02278 -1.857975 -2.204441 4.720455 2.853617 9.63805 -8.10575 1.323345 20.07254 7.128835 3.951581 -26.10311 9.07297 5.549381 -18.39116 11.17893 86.29133 34.83336 -19.99524 -0 0 14.1321 -9.075198 9.936214 4.726448 7.552933 -21.80017 -0.5120745 -91.85871 21.92542 19.05387 0 0 -17.60263 12.023 14.2171 -0.186319
1.222761 109.1386 11.66378 -0.5780036 1.724274 0.8905598 6.364394 -30.01926 4.233714 -0 24.18391 -0 -8.574247 -6.14309 -0.6867913 -6.082408 12.99431 -18.2997 -0 9.204117 -0 8.815841 -21.16177 22.14686 -1.817241 -2.037888 4.491128 3.003962 9.487126 -8.184122 1.317435 20.03569 7.166318 3.923986 -26.32074 9.103486 5.580446 -18.12708 11.23993 86.35896 34.72804 -20.12306 -0 0 13.69396 -9.098254 10.02919 4.962889 7.396623 -21.64749 -0.5609661 -91.66938 22.14262 18.73807 0 0 -17.86711 11.52007 14.14935 0.3126267
1.442933 110.0089 15.30735 -1.066285 2.421651 1.191372 6.897841 -32.59887 3.400278 -0 20.9192 -0 -9.136579 -3.600516 -0.1850627 -5.680413 13.51837 -16.99802 -0 11.17316 -0 7.004798 -21.82049 19.96959 -1.774742 -1.870478 4.264831 3.152007 9.338656 -8.261997 1.307883 20.00069 7.202447 3.897697 -26.52086 9.123143 5.611492 -17.86315 11.30238 86.42654 34.61895 -20.25109 -0 0 13.25453 -9.13132 10.11895 5.203868 7.237532 -21.50141 -0.6183404 -91.47716 22.34932 18.42896 0 0 -18.12705 11.01221 14.07392 0.8232049
